<svg preserveAspectRatio="none" width="100%" height="100%" overflow="visible" style="display: block;" viewBox="0 0 40 40" fill="none" xmlns="http://www.w3.org/2000/svg">
<g id="SVG">
<path id="Vector" d="M20 36.6667C29.2047 36.6667 36.6667 29.2047 36.6667 20C36.6667 10.7953 29.2047 3.33333 20 3.33333C10.7953 3.33333 3.33333 10.7953 3.33333 20C3.33333 29.2047 10.7953 36.6667 20 36.6667Z" stroke="var(--stroke-0, #4ADE80)" stroke-width="2.08333" stroke-linecap="round" stroke-linejoin="round"/>
<path id="Vector_2" d="M20 21.6667C22.7614 21.6667 25 19.4281 25 16.6667C25 13.9052 22.7614 11.6667 20 11.6667C17.2386 11.6667 15 13.9052 15 16.6667C15 19.4281 17.2386 21.6667 20 21.6667Z" stroke="var(--stroke-0, #4ADE80)" stroke-width="2.08333" stroke-linecap="round" stroke-linejoin="round"/>
<path id="Vector_3" d="M11.6667 34.4367V31.6667C11.6667 30.7826 12.0179 29.9348 12.643 29.3096C13.2681 28.6845 14.1159 28.3333 15 28.3333H25C25.8841 28.3333 26.7319 28.6845 27.357 29.3096C27.9821 29.9348 28.3333 30.7826 28.3333 31.6667V34.4367" stroke="var(--stroke-0, #4ADE80)" stroke-width="2.08333" stroke-linecap="round" stroke-linejoin="round"/>
</g>
</svg>
