<svg preserveAspectRatio="none" width="100%" height="100%" overflow="visible" style="display: block;" viewBox="0 0 36 44.0067" fill="none" xmlns="http://www.w3.org/2000/svg">
<path id="Vector" d="M34 24.0009C34 34.0009 27 39.0009 18.68 41.9009C18.2443 42.0485 17.7711 42.0415 17.34 41.8809C9 39.0009 2 34.0009 2 24.0009V10.0009C2 9.47047 2.21071 8.96176 2.58579 8.58669C2.96086 8.21161 3.46957 8.0009 4 8.0009C8 8.0009 13 5.6009 16.48 2.5609C16.9037 2.1989 17.4427 2 18 2C18.5573 2 19.0963 2.1989 19.52 2.5609C23.02 5.6209 28 8.0009 32 8.0009C32.5304 8.0009 33.0391 8.21161 33.4142 8.58669C33.7893 8.96176 34 9.47047 34 10.0009V24.0009Z" stroke="var(--stroke-0, #1BB658)" stroke-width="4" stroke-linecap="round" stroke-linejoin="round"/>
</svg>
